<svg xmlns="http://www.w3.org/2000/svg" xmlns:xlink="http://www.w3.org/1999/xlink" viewBox="0 0 145.69 23.41"><defs><style>.cls-1{fill:none;}.cls-2{clip-path:url(#clip-path);}.cls-3{fill:#f9c300;}.cls-4{fill:#033d50;}</style><clipPath id="clip-path"><rect class="cls-1" width="26.58" height="23.41"></rect></clipPath></defs><g id="Layer_2" data-name="Layer 2"><g id="Layer_1-2" data-name="Layer 1"><g class="cls-2"><path class="cls-3" d="M24.2,11.33l-3.47-6L19,2.44a.74.74,0,0,0-.66-.38H8a.76.76,0,0,0-.66.38L2.17,11.33a.72.72,0,0,0,0,.75l1,1.72L7.34,21a.77.77,0,0,0,.66.37H18.36A.76.76,0,0,0,19,21l5.18-8.9A.72.72,0,0,0,24.2,11.33Z"></path><path class="cls-4" d="M23.86,16.1a.73.73,0,0,1-.35-.09.68.68,0,0,1-.25-.94l1.91-3.28a.17.17,0,0,0,0-.17L19.25,1.47a.16.16,0,0,0-.15-.09H12.4A.69.69,0,1,1,12.4,0h6.7a1.58,1.58,0,0,1,1.36.78l5.91,10.15a1.54,1.54,0,0,1,0,1.55l-1.91,3.28A.69.69,0,0,1,23.86,16.1Z"></path><path class="cls-4" d="M19.1,23.41H7.27a1.57,1.57,0,0,1-1.36-.77L5,21a.69.69,0,0,1,.26-.94.7.7,0,0,1,.95.25L7.12,22a.19.19,0,0,0,.15.09H19.1a.19.19,0,0,0,.15-.09l2.6-4.47a.7.7,0,0,1,.95-.25.69.69,0,0,1,.26.94l-2.6,4.47A1.57,1.57,0,0,1,19.1,23.41Z"></path><path class="cls-4" d="M0,10.93,5.91.78A1.58,1.58,0,0,1,7.27,0h2.8a.69.69,0,0,1,0,1.38H7.27a.16.16,0,0,0-.15.09L1.2,11.62a.17.17,0,0,0,0,.17l3.38,5.8a.7.7,0,0,1-.25.95.73.73,0,0,1-.35.09.7.7,0,0,1-.6-.35L0,12.48"></path><path class="cls-4" d="M15,10.73v0h0Z"></path></g><path class="cls-4" d="M20.4,12.37A4.75,4.75,0,0,0,17,10.71,2.15,2.15,0,0,0,17.76,9a3.24,3.24,0,0,1,1.11-.19.78.78,0,0,0,.18.3.83.83,0,0,0,1.18.07A.84.84,0,0,0,20.29,8,.85.85,0,0,0,19.11,8a.82.82,0,0,0-.24.38,3.93,3.93,0,0,0-1.19.2.31.31,0,0,1,0-.08A2.11,2.11,0,0,0,16.5,7.23,2.06,2.06,0,0,0,16.78,6a.79.79,0,0,0,.29-.17.84.84,0,1,0-1.18-.06.85.85,0,0,0,.4.25A1.69,1.69,0,0,1,16,7.09a2,2,0,0,0-.6,0,2,2,0,0,0-1.17.63,7,7,0,0,0-.05-1,4.11,4.11,0,0,0-.93-2.26h0A3.14,3.14,0,0,0,8,5.26a3.09,3.09,0,0,0,.54,3.32h0A6.46,6.46,0,0,0,9.84,9.74a6.55,6.55,0,0,0-3.47,4.55A4.3,4.3,0,0,0,6.58,17l.4.44a4.32,4.32,0,0,0,2.88.4A6.42,6.42,0,0,0,14.42,15a4.27,4.27,0,0,0,2,2.06,3.29,3.29,0,0,0,3.5-.53A3.18,3.18,0,0,0,20.4,12.37Zm-.44-4a.39.39,0,0,1-.58.52A.39.39,0,0,1,20,8.32ZM16.22,5.43a.38.38,0,0,1,0-.55.39.39,0,1,1,.52.58A.38.38,0,0,1,16.22,5.43ZM8.94,8.26h0a2.63,2.63,0,0,1-.45-2.8,2.66,2.66,0,0,1,4.41-.71v0a3.57,3.57,0,0,1,.81,2,9.92,9.92,0,0,1,0,2.11c0,.06,0,.12,0,.19a.25.25,0,0,0,.24.25.24.24,0,0,0,.26-.22c0-.06,0-.11,0-.16a1.56,1.56,0,1,1,2.31,1.55,1.7,1.7,0,0,1-.49.18h0a.2.2,0,0,0-.11,0,4.76,4.76,0,0,1-1.07,0C12.11,10.54,10.14,9.72,8.94,8.26Zm-.8,3.47,4.2,4.69a5.55,5.55,0,0,1-1.2.59L7.39,12.82A6.67,6.67,0,0,1,8.14,11.73Zm4.56,4.43L8.45,11.4a6.85,6.85,0,0,1,1.14-.93l4.16,4.64A5.79,5.79,0,0,1,12.7,16.16Zm-5.36.94L7,16.67a3.67,3.67,0,0,1-.19-1.6l2.07,2.32A3.38,3.38,0,0,1,7.34,17.1Zm2.46.24-.37,0L6.84,14.48A3.46,3.46,0,0,1,7,14a4.86,4.86,0,0,1,.24-.7l3.49,3.9A6.56,6.56,0,0,1,9.8,17.34Zm6.87-.71a3.5,3.5,0,0,1-1.92-2.23v0h0a3.89,3.89,0,0,1,.22-2,.25.25,0,0,0-.12-.33.25.25,0,0,0-.33.13,4.32,4.32,0,0,0-.27,2.26l-.24.37-4-4.51.35-.2a10.11,10.11,0,0,0,4.42,1.17,4.64,4.64,0,0,0,1.29,0c1.87,0,3.21.54,4,1.52a2.67,2.67,0,0,1-.37,3.51A2.8,2.8,0,0,1,16.67,16.63Z"></path><path class="cls-4" d="M31.87,13.28a1.67,1.67,0,0,1,.34-1,2.31,2.31,0,0,1,.95-.71,3.59,3.59,0,0,1,1.41-.25,5.49,5.49,0,0,1,.8.06,2.61,2.61,0,0,1,.71.19v-.35a1.12,1.12,0,0,0-.35-.89,1.5,1.5,0,0,0-1-.32,2.81,2.81,0,0,0-1,.18,4.94,4.94,0,0,0-1,.52l-.5-1.05A4.76,4.76,0,0,1,33.47,9a4.84,4.84,0,0,1,1.38-.19,3.11,3.11,0,0,1,2.09.65,2.39,2.39,0,0,1,.75,1.9v2a.54.54,0,0,0,.09.35.42.42,0,0,0,.29.13v1.31l-.39.06a1,1,0,0,1-.29,0,1.11,1.11,0,0,1-.73-.21.83.83,0,0,1-.29-.52l0-.32a2.82,2.82,0,0,1-1,.81,2.93,2.93,0,0,1-1.25.29A2.43,2.43,0,0,1,32.93,15a2,2,0,0,1-.78-.71A1.76,1.76,0,0,1,31.87,13.28Zm3.91.3a.92.92,0,0,0,.22-.26.68.68,0,0,0,.08-.26v-.62a3.72,3.72,0,0,0-1.26-.25,1.78,1.78,0,0,0-1,.27.79.79,0,0,0-.41.69.82.82,0,0,0,.14.45.9.9,0,0,0,.37.35,1.41,1.41,0,0,0,.61.13,2,2,0,0,0,.71-.14A1.8,1.8,0,0,0,35.78,13.58Z"></path><path class="cls-4" d="M41.65,15.24A2.58,2.58,0,0,1,40.5,15a2.85,2.85,0,0,1-.89-.69,3.3,3.3,0,0,1-.58-1,3.91,3.91,0,0,1,0-2.5,3.25,3.25,0,0,1,.6-1,2.65,2.65,0,0,1,2.11-.94A2.46,2.46,0,0,1,43,9.12a2.73,2.73,0,0,1,.91.88V8.89h1.41v5.95a2.76,2.76,0,0,1-.46,1.59,2.88,2.88,0,0,1-1.24,1,4.25,4.25,0,0,1-1.8.36,3.88,3.88,0,0,1-1.72-.35,3.45,3.45,0,0,1-1.22-1l.88-.85a2.53,2.53,0,0,0,.91.69,2.68,2.68,0,0,0,1.15.25,2.42,2.42,0,0,0,.94-.17,1.47,1.47,0,0,0,.68-.54,1.68,1.68,0,0,0,.26-1v-.79a2.07,2.07,0,0,1-.87.84A2.7,2.7,0,0,1,41.65,15.24ZM42.19,14a1.44,1.44,0,0,0,.51-.09,1.54,1.54,0,0,0,.44-.23,1.92,1.92,0,0,0,.36-.34,1.44,1.44,0,0,0,.23-.42V11.39a1.94,1.94,0,0,0-.39-.65,2.36,2.36,0,0,0-.58-.43,1.53,1.53,0,0,0-.67-.15,1.51,1.51,0,0,0-1.18.59,2.13,2.13,0,0,0-.34.63,2.18,2.18,0,0,0-.12.72,1.89,1.89,0,0,0,.14.72,1.84,1.84,0,0,0,.37.6,1.6,1.6,0,0,0,.56.4A1.71,1.71,0,0,0,42.19,14Z"></path><path class="cls-4" d="M46.8,7.94V6.36h1.59V7.94Zm0,7.18V8.83h1.59v6.29Z"></path><path class="cls-4" d="M52.76,15.24A3.49,3.49,0,0,1,51.39,15a3.2,3.2,0,0,1-1-.71,3,3,0,0,1-.65-1A3.31,3.31,0,0,1,49.47,12a3.41,3.41,0,0,1,.23-1.24,3,3,0,0,1,.64-1,3.18,3.18,0,0,1,1-.7,3.93,3.93,0,0,1,2.76,0,3.13,3.13,0,0,1,1,.7,3,3,0,0,1,.66,1A3.22,3.22,0,0,1,56.06,12a3.23,3.23,0,0,1-.89,2.25,3.16,3.16,0,0,1-1,.71A3.57,3.57,0,0,1,52.76,15.24ZM51.12,12a2.12,2.12,0,0,0,.21,1,1.74,1.74,0,0,0,.6.66,1.6,1.6,0,0,0,.83.23,1.49,1.49,0,0,0,.83-.24,1.64,1.64,0,0,0,.59-.66,2.1,2.1,0,0,0,0-1.91,1.68,1.68,0,0,0-.59-.65,1.52,1.52,0,0,0-1.67,0,1.76,1.76,0,0,0-.59.65A2.12,2.12,0,0,0,51.12,12Z"></path><path class="cls-4" d="M59.45,15.24A4.76,4.76,0,0,1,57.9,15a3.4,3.4,0,0,1-1.25-.78l.59-1a3.92,3.92,0,0,0,1.09.67,2.72,2.72,0,0,0,1.06.22,1.49,1.49,0,0,0,.75-.16.54.54,0,0,0,.28-.49.41.41,0,0,0-.16-.36,1.35,1.35,0,0,0-.45-.21l-.71-.21a9.11,9.11,0,0,1-1.16-.43,1.81,1.81,0,0,1-.7-.55A1.34,1.34,0,0,1,57,10.8a1.71,1.71,0,0,1,.32-1.06,2,2,0,0,1,.88-.69,3.27,3.27,0,0,1,1.34-.25A3.8,3.8,0,0,1,60.81,9a3.08,3.08,0,0,1,1.1.67l-.66,1a3.52,3.52,0,0,0-.9-.56,2.27,2.27,0,0,0-.88-.18A1.73,1.73,0,0,0,59,10a.79.79,0,0,0-.36.2.48.48,0,0,0-.14.38.47.47,0,0,0,.12.34,1,1,0,0,0,.39.23l.63.21a11.6,11.6,0,0,1,1.27.43,2.09,2.09,0,0,1,.79.55,1.38,1.38,0,0,1,.27.9,1.71,1.71,0,0,1-.69,1.44A2.92,2.92,0,0,1,59.45,15.24Z"></path><path class="cls-4" d="M69.71,15.24a2.54,2.54,0,0,1-1.3-.33,2.4,2.4,0,0,1-.88-.88v3.65H65.94V8.89h1.4V10a2.77,2.77,0,0,1,.91-.86,2.5,2.5,0,0,1,1.26-.31,2.64,2.64,0,0,1,1.17.25,2.76,2.76,0,0,1,.94.69,3.26,3.26,0,0,1,.62,1A3.57,3.57,0,0,1,72.45,12a3.68,3.68,0,0,1-.35,1.64,3,3,0,0,1-1,1.17A2.41,2.41,0,0,1,69.71,15.24Zm-.54-1.37a1.45,1.45,0,0,0,.66-.15,1.5,1.5,0,0,0,.52-.41,1.92,1.92,0,0,0,.34-.61,2.16,2.16,0,0,0,.12-.71,1.87,1.87,0,0,0-.13-.71,1.62,1.62,0,0,0-.36-.59,1.79,1.79,0,0,0-.56-.38,1.63,1.63,0,0,0-.7-.15,1.42,1.42,0,0,0-.45.08,1.57,1.57,0,0,0-.45.22,1.45,1.45,0,0,0-.37.32,1.59,1.59,0,0,0-.26.41v1.46a2.39,2.39,0,0,0,.41.62,1.62,1.62,0,0,0,.57.44A1.4,1.4,0,0,0,69.17,13.87Z"></path><path class="cls-4" d="M73.11,13.28a1.68,1.68,0,0,1,.35-1,2.22,2.22,0,0,1,.94-.71,3.66,3.66,0,0,1,1.41-.25,5.52,5.52,0,0,1,.81.06,2.72,2.72,0,0,1,.71.19v-.35a1.15,1.15,0,0,0-.35-.89,1.52,1.52,0,0,0-1-.32,2.72,2.72,0,0,0-1,.18,5.29,5.29,0,0,0-1,.52l-.5-1.05A4.82,4.82,0,0,1,74.72,9a4.73,4.73,0,0,1,1.37-.19,3.09,3.09,0,0,1,2.09.65,2.39,2.39,0,0,1,.75,1.9v2a.54.54,0,0,0,.09.35.42.42,0,0,0,.3.13v1.31l-.39.06a1,1,0,0,1-.3,0,1.07,1.07,0,0,1-.72-.21.84.84,0,0,1-.3-.52l0-.32a2.9,2.9,0,0,1-1,.81,3,3,0,0,1-1.25.29A2.4,2.4,0,0,1,74.18,15a1.86,1.86,0,0,1-.78-.71A1.77,1.77,0,0,1,73.11,13.28Zm3.92.3a.89.89,0,0,0,.21-.26.57.57,0,0,0,.09-.26v-.62a3.07,3.07,0,0,0-.63-.18,2.83,2.83,0,0,0-.63-.07,1.81,1.81,0,0,0-1,.27.78.78,0,0,0-.4.69.81.81,0,0,0,.13.45.92.92,0,0,0,.38.35,1.33,1.33,0,0,0,.6.13,2,2,0,0,0,.71-.14A2,2,0,0,0,77,13.58Z"></path><path class="cls-4" d="M81.9,15.12,79.58,8.89h1.66l1.61,4.78,1.58-4.78H86l-2.31,6.23Z"></path><path class="cls-4" d="M86.79,6.36H88.4v6.75a.87.87,0,0,0,.15.6.49.49,0,0,0,.38.15,1.84,1.84,0,0,0,.41,0,1.28,1.28,0,0,0,.36-.13l.21,1.24a3.31,3.31,0,0,1-.75.24,4.49,4.49,0,0,1-.78.08,1.58,1.58,0,0,1-1.17-.4,1.51,1.51,0,0,1-.42-1.14Z"></path><path class="cls-4" d="M93.51,15.24A3.49,3.49,0,0,1,92.14,15a3.31,3.31,0,0,1-1-.71,3.1,3.1,0,0,1-.65-1A3.3,3.3,0,0,1,90.23,12a3.41,3.41,0,0,1,.22-1.24,3,3,0,0,1,.65-1,3.13,3.13,0,0,1,1-.7,3.93,3.93,0,0,1,2.76,0,3.28,3.28,0,0,1,1,.7,3.36,3.36,0,0,1,.66,1A3.41,3.41,0,0,1,96.81,12a3.3,3.3,0,0,1-.22,1.22,3.49,3.49,0,0,1-.66,1,3.31,3.31,0,0,1-1,.71A3.54,3.54,0,0,1,93.51,15.24ZM91.87,12a2,2,0,0,0,.22,1,1.64,1.64,0,0,0,.59.66,1.6,1.6,0,0,0,.83.23,1.49,1.49,0,0,0,.83-.24,1.74,1.74,0,0,0,.6-.66,2.18,2.18,0,0,0,0-1.91,1.79,1.79,0,0,0-.6-.65,1.52,1.52,0,0,0-1.67,0,1.74,1.74,0,0,0-.58.65A2,2,0,0,0,91.87,12Z"></path><path class="cls-4" d="M100.2,15.24A4.65,4.65,0,0,1,98.66,15a3.44,3.44,0,0,1-1.26-.78l.59-1a3.92,3.92,0,0,0,1.09.67,2.72,2.72,0,0,0,1.06.22,1.49,1.49,0,0,0,.75-.16.52.52,0,0,0,.28-.49A.41.41,0,0,0,101,13a1.35,1.35,0,0,0-.45-.21l-.71-.21a9.72,9.72,0,0,1-1.16-.43,1.81,1.81,0,0,1-.7-.55,1.34,1.34,0,0,1-.24-.83,1.78,1.78,0,0,1,.32-1.06A2,2,0,0,1,99,9.05a3.22,3.22,0,0,1,1.33-.25,3.86,3.86,0,0,1,1.28.21,3,3,0,0,1,1.09.67l-.66,1a3.21,3.21,0,0,0-.9-.56,2.27,2.27,0,0,0-.88-.18,1.78,1.78,0,0,0-.47.06.79.79,0,0,0-.36.2.52.52,0,0,0-.14.38.44.44,0,0,0,.13.34.91.91,0,0,0,.38.23l.63.21a11.6,11.6,0,0,1,1.27.43,2,2,0,0,1,.79.55,1.38,1.38,0,0,1,.27.9,1.71,1.71,0,0,1-.69,1.44A2.91,2.91,0,0,1,100.2,15.24Z"></path><path class="cls-4" d="M107,16.68V5.82h.54V16.68Z"></path><path class="cls-4" d="M117.75,15.12h-.6V11.65a3.08,3.08,0,0,0-.39-1.72,1.31,1.31,0,0,0-1.16-.58,2.13,2.13,0,0,0-1,.25,2.69,2.69,0,0,0-.85.69,2.72,2.72,0,0,0-.52,1v3.85h-.6V6.36h.6v4a3,3,0,0,1,1.07-1.16,2.66,2.66,0,0,1,1.45-.43,1.9,1.9,0,0,1,.9.19,1.56,1.56,0,0,1,.62.55,2.81,2.81,0,0,1,.35.86,5,5,0,0,1,.11,1.15Z"></path><path class="cls-4" d="M122.18,15.24a2.87,2.87,0,0,1-2.18-1,3.13,3.13,0,0,1-.64-1,3.31,3.31,0,0,1-.23-1.22,3.39,3.39,0,0,1,.23-1.25,3.31,3.31,0,0,1,.64-1,3.08,3.08,0,0,1,1-.71,2.91,2.91,0,0,1,1.21-.25,2.84,2.84,0,0,1,1.2.25,3.08,3.08,0,0,1,1,.71,3.16,3.16,0,0,1,.65,1,3.39,3.39,0,0,1,.23,1.25,3.34,3.34,0,0,1-.87,2.25,3,3,0,0,1-1,.7A2.91,2.91,0,0,1,122.18,15.24ZM119.73,12a2.74,2.74,0,0,0,.33,1.34,2.65,2.65,0,0,0,.89,1,2.16,2.16,0,0,0,1.22.36,2.21,2.21,0,0,0,1.23-.36,2.71,2.71,0,0,0,.89-1,2.91,2.91,0,0,0,0-2.69,2.75,2.75,0,0,0-.88-1,2.21,2.21,0,0,0-1.23-.36,2.14,2.14,0,0,0-1.23.37,2.63,2.63,0,0,0-.89,1A2.75,2.75,0,0,0,119.73,12Z"></path><path class="cls-4" d="M131.77,15.12h-.6V11.65a3.55,3.55,0,0,0-.34-1.75,1.18,1.18,0,0,0-1.09-.55,2.31,2.31,0,0,0-1,.25,3,3,0,0,0-.89.69,2.62,2.62,0,0,0-.54,1v3.85h-.6V8.89h.56v1.5a2.7,2.7,0,0,1,.67-.83,3.21,3.21,0,0,1,.94-.56,2.79,2.79,0,0,1,1.07-.2,1.93,1.93,0,0,1,.87.18,1.53,1.53,0,0,1,.57.53,2.3,2.3,0,0,1,.32.86,6,6,0,0,1,.1,1.18Z"></path><path class="cls-4" d="M136.23,15.24A2.9,2.9,0,0,1,135,15a3,3,0,0,1-1-.7,3.58,3.58,0,0,1-.65-1,3.51,3.51,0,0,1-.23-1.25,3.17,3.17,0,0,1,.4-1.6,3,3,0,0,1,1.09-1.16,2.86,2.86,0,0,1,1.56-.43,2.8,2.8,0,0,1,1.57.44,3.17,3.17,0,0,1,1.08,1.16,3.25,3.25,0,0,1,.41,1.59v.14a.37.37,0,0,1,0,.12h-5.47a2.79,2.79,0,0,0,.4,1.28,2.64,2.64,0,0,0,.89.9,2.28,2.28,0,0,0,1.2.33,2.32,2.32,0,0,0,1.22-.34,1.84,1.84,0,0,0,.8-.86l.53.14a2.19,2.19,0,0,1-.57.8,2.85,2.85,0,0,1-.91.54A3.11,3.11,0,0,1,136.23,15.24Zm-2.48-3.46h4.93a2.9,2.9,0,0,0-.38-1.29,2.58,2.58,0,0,0-.89-.88,2.41,2.41,0,0,0-2.4,0,2.64,2.64,0,0,0-.88.88A2.9,2.9,0,0,0,133.75,11.78Z"></path><path class="cls-4" d="M140.83,17.23h.34a.41.41,0,0,0,.22-.06.4.4,0,0,0,.22-.18,3.21,3.21,0,0,0,.31-.59q.2-.43.54-1.29l-2.78-6.23h.63l2.47,5.6,2.3-5.6h.61l-3.42,8.2a1.27,1.27,0,0,1-.2.34.92.92,0,0,1-.31.24,1.09,1.09,0,0,1-.43.1l-.23,0h-.27Z"></path></g></g></svg>