<?xml version="1.0" encoding="UTF-8"?> <svg xmlns="http://www.w3.org/2000/svg" xmlns:xlink="http://www.w3.org/1999/xlink" viewBox="0 0 1649.95 221.53"><defs><style>.cls-1{fill:none;}.cls-2{clip-path:url(#clip-path);}.cls-3{fill:#a3e84f;}.cls-4{fill:#a2e84f;}.cls-5{fill:#a2e74f;}.cls-6{fill:#a2e74e;}.cls-7{fill:#a1e74e;}.cls-8{fill:#a0e64e;}.cls-9{fill:#a0e64d;}.cls-10{fill:#9fe64d;}.cls-11{fill:#9fe54d;}.cls-12{fill:#9ee54c;}.cls-13{fill:#9de54c;}.cls-14{fill:#9de44c;}.cls-15{fill:#9de44b;}.cls-16{fill:#9ce44b;}.cls-17{fill:#9be34b;}.cls-18{fill:#9be34a;}.cls-19{fill:#9ae34a;}.cls-20{fill:#9ae24a;}.cls-21{fill:#99e24a;}.cls-22{fill:#99e249;}.cls-23{fill:#98e249;}.cls-24{fill:#98e149;}.cls-25{fill:#97e149;}.cls-26{fill:#97e148;}.cls-27{fill:#96e048;}.cls-28{fill:#95e047;}.cls-29{fill:#95df47;}.cls-30{fill:#94df47;}.cls-31{fill:#94df46;}.cls-32{fill:#93df46;}.cls-33{fill:#93de46;}.cls-34{fill:#92de46;}.cls-35{fill:#92de45;}.cls-36{fill:#91dd45;}.cls-37{fill:#90dd45;}.cls-38{fill:#90dd44;}.cls-39{fill:#8fdc44;}.cls-40{fill:#8edc44;}.cls-41{fill:#8edb43;}.cls-42{fill:#8ddb43;}.cls-43{fill:#8cda42;}.cls-44{fill:#8bda42;}.cls-45{fill:#8bd941;}.cls-46{fill:#8ad941;}.cls-47{fill:#89d841;}.cls-48{fill:#89d840;}.cls-49{fill:#88d840;}.cls-50{fill:#87d740;}.cls-51{fill:#87d73f;}.cls-52{fill:#86d73f;}.cls-53{fill:#86d63f;}.cls-54{fill:#85d63e;}.cls-55{fill:#84d53e;}.cls-56{fill:#83d53d;}.cls-57{fill:#82d43d;}.cls-58{fill:#82d43c;}.cls-59{fill:#81d43c;}.cls-60{fill:#80d33c;}.cls-61{fill:#80d33b;}.cls-62{fill:#7fd23b;}.cls-63{fill:#7ed23a;}.cls-64{fill:#7dd13a;}.cls-65{fill:#7cd139;}.cls-66{fill:#7bd039;}.cls-67{fill:#7bd038;}.cls-68{fill:#7acf38;}.cls-69{fill:#79cf38;}.cls-70{fill:#79cf37;}.cls-71{fill:#78ce37;}.cls-72{fill:#77ce37;}.cls-73{fill:#77cd36;}.cls-74{fill:#76cd36;}.cls-75{fill:#75cd36;}.cls-76{fill:#75cc35;}.cls-77{fill:#74cc35;}.cls-78{fill:#73cb34;}.cls-79{fill:#72cb34;}.cls-80{fill:#71ca33;}.cls-81{fill:#70c933;}.cls-82{fill:#6fc932;}.cls-83{fill:#6ec831;}.cls-84{fill:#6dc831;}.cls-85{fill:#6dc731;}.cls-86{fill:#6cc730;}.cls-87{fill:#6bc630;}.cls-88{fill:#6bc62f;}.cls-89{fill:#6ac62f;}.cls-90{fill:#69c52f;}.cls-91{fill:#68c52e;}.cls-92{fill:#68c42e;}.cls-93{fill:#67c42d;}.cls-94{fill:#66c42d;}.cls-95{fill:#66c32d;}.cls-96{fill:#65c32c;}.cls-97{fill:#64c22c;}.cls-98{fill:#63c12b;}.cls-99{fill:#62c12b;}.cls-100{fill:#61c12a;}.cls-101{fill:#61c02a;}.cls-102{fill:#60c02a;}.cls-103{fill:#5fbf29;}.cls-104{fill:#5ebe28;}.cls-105{fill:#5dbe28;}.cls-106{fill:#5cbd27;}.cls-107{fill:#5bbd27;}.cls-108{fill:#5abc26;}.cls-109{fill:#59bc26;}.cls-110{fill:#58bb25;}.cls-111{fill:#57ba24;}.cls-112{fill:#56ba24;}.cls-113{fill:#56b924;}.cls-114{fill:#55b923;}.cls-115{fill:#54b923;}.cls-116{fill:#54b823;}.cls-117{fill:#53b822;}.cls-118{fill:#52b722;}.cls-119{fill:#51b721;}.cls-120{fill:#50b621;}.cls-121{fill:#4fb620;}.cls-122{fill:#4fb520;}.cls-123{fill:#4eb520;}.cls-124{fill:#4db51f;}.cls-125{fill:#4db41f;}.cls-126{fill:#4cb41e;}.cls-127{fill:#4bb31e;}.cls-128{fill:#4ab31d;}.cls-129{fill:#4ab21d;}.cls-130{fill:#49b21d;}.cls-131{fill:#48b11c;}.cls-132{fill:#47b11c;}.cls-133{fill:#46b01b;}.cls-134{fill:#45b01a;}.cls-135{fill:#45af1a;}.cls-136{fill:#44af1a;}.cls-137{fill:#43ae19;}.cls-138{fill:#42ae19;}.cls-139{fill:#42ad18;}.cls-140{fill:#41ad18;}.cls-141{fill:#40ad18;}.cls-142{fill:#40ac18;}.cls-143{fill:#3fac17;}.cls-144{fill:#3eab17;}.cls-145{fill:#3eab16;}.cls-146{fill:#3dab16;}.cls-147{fill:#3caa16;}.cls-148{fill:#3caa15;}.cls-149{fill:#3baa15;}.cls-150{fill:#3ba915;}.cls-151{fill:#3aa914;}.cls-152{fill:#39a814;}.cls-153{fill:#38a813;}.cls-154{fill:#37a713;}.cls-155{fill:#37a712;}.cls-156{fill:#36a612;}.cls-157{fill:#35a612;}.cls-158{fill:#35a611;}.cls-159{fill:#34a511;}.cls-160{fill:#33a511;}.cls-161{fill:#33a510;}.cls-162{fill:#33a410;}.cls-163{fill:#32a410;}.cls-164{fill:#31a40f;}.cls-165{fill:#31a30f;}.cls-166{fill:#30a30f;}.cls-167{fill:#2fa20e;}.cls-168{fill:#2ea20e;}.cls-169{fill:#2ea20d;}.cls-170{fill:#2ea10d;}.cls-171{fill:#2da10d;}</style><clipPath id="clip-path"><path class="cls-1" d="M1509.52,28.89h98.29q42.14,0,42.14,48.16v48.16q0,48.14-42.14,48.16h-49.13q-7,0-7,9.61v38.55h-42.12V77.05h42.12v48.16q0,9.62,7,9.61h35.11q14,0,14-19.23V86.7q0-19.29-14-19.27h-84.27Zm-21,0V67.43h-84.26q-14,0-14,19.27v28.89q0,19.23,14,19.23h28.09q14,0,14-19.23V77.05h42.15v48.16q0,48.14-42.15,48.16h-56.16q-42.11,0-42.12-48.16V77.05q0-48.15,42.12-48.16ZM1186.56,173.37V0h42.11V38.54q0,9.62,7,9.62h49.13q42.15,0,42.15,48.16v77.05h-42.15V105.93q0-19.23-14-19.23h-35.11q-7.05,0-7,9.62v77.05Zm-21.06,0H1025.07V134.82H1165.5ZM1165.5,0V38.54h-84.26c-9.35,0-14,4.81-14,14.43s4.7,14.46,14,14.46h42.12q42.14,0,42.14,48.16v9.62h-42.14c0-12.82-4.68-19.28-14-19.28h-42.15q-42.11,0-42.12-48.16V48.16Q1025.07,0,1067.19,0h98.31ZM807.42,28.89h28.1q7,0,7-9.62h42.12q0,9.61,7,9.62h56.17V67.43H891.68q-7,0-7,9.62v38.54q0,19.23,14.05,19.23h49.16v38.55H884.64q-42.1,0-42.12-48.16V77.05q0-9.61-7-9.62h-28.1ZM695.09,86.7h42.12c4.67,0,7-3.24,7-9.65s-4.68-9.62-14-9.62H702.1q-14,0-14.05,19.27v38.51q0,9.62,7,9.61h91.27v38.55H688.05q-42.1,0-42.12-48.16V77.05q0-48.15,42.12-48.16h56.17q42.15,0,42.14,48.16t-42.14,48.16H695.09Zm-70.21,86.67q0,48.13-42.15,48.16H484.45V183h91.27c4.68,0,7-1.6,7-4.81s-2.33-4.8-7-4.8H526.57q-42.11,0-42.12-48.16V77.05q0-48.15,42.12-48.16h98.31V67.43H540.62q-14,0-14,19.27v28.89q0,19.23,14,19.23h35.1q7,0,7-9.61V77.05h42.15ZM463.4,0V125.21H421.25V86.7c0-6.45-2.34-9.65-7-9.65H379.13c-9.34,0-14.05,6.41-14.05,19.27v19.27c0,12.82,4.71,19.23,14.05,19.23H463.4v38.55H365.08q-42.09,0-42.11-48.16V86.7q0-48.2,42.11-48.16h49.16c4.67,0,7-3.2,7-9.65V0ZM203.6,173.37q-42.1,0-42.12-48.16T203.6,77.05h49.16c4.67,0,7-1.61,7-4.81s-2.34-4.81-7-4.81H168.49V28.89h91.28q42.14,0,42.14,48.16v48.16H259.77q0-9.61-7-9.62H217.65c-9.35,0-14.05,3.21-14.05,9.62s4.7,9.61,14.05,9.61h84.26v38.55ZM42.12,48.16v67.43q0,19.23,14.05,19.23h35.1q7,0,7-9.61v-9.62c0-6.45-2.33-9.66-7-9.66H63.18V67.43h77.25v57.78q0,48.14-42.15,48.16H42.12Q0,173.37,0,125.21v-77ZM140.43,0V38.54H0V0Z"></path></clipPath></defs><g id="Layer_2" data-name="Layer 2"><g id="Layer_1-2" data-name="Layer 1"><g class="cls-2"><rect class="cls-3" width="1649.95" height="1.3"></rect><rect class="cls-3" y="0.87" width="1649.95" height="1.3"></rect><rect class="cls-3" y="1.73" width="1649.95" height="1.3"></rect><rect class="cls-3" y="2.6" width="1649.95" height="1.3"></rect><rect class="cls-3" y="3.46" width="1649.95" height="1.3"></rect><rect class="cls-3" y="4.33" width="1649.95" height="1.3"></rect><rect class="cls-3" y="5.19" width="1649.95" height="1.3"></rect><rect class="cls-3" y="6.06" width="1649.95" height="1.3"></rect><rect class="cls-3" y="6.92" width="1649.95" height="1.3"></rect><rect class="cls-3" y="7.79" width="1649.95" height="1.3"></rect><rect class="cls-3" y="8.65" width="1649.95" height="1.3"></rect><rect class="cls-3" y="9.52" width="1649.95" height="1.3"></rect><rect class="cls-4" y="10.38" width="1649.95" height="1.3"></rect><rect class="cls-4" y="11.25" width="1649.95" height="1.3"></rect><rect class="cls-4" y="12.11" width="1649.95" height="1.3"></rect><rect class="cls-5" y="12.98" width="1649.95" height="1.3"></rect><rect class="cls-6" y="13.85" width="1649.95" height="1.3"></rect><rect class="cls-6" y="14.71" width="1649.95" height="1.3"></rect><rect class="cls-6" y="15.58" width="1649.95" height="1.3"></rect><rect class="cls-6" y="16.44" width="1649.95" height="1.3"></rect><rect class="cls-7" y="17.31" width="1649.95" height="1.3"></rect><rect class="cls-7" y="18.17" width="1649.95" height="1.3"></rect><rect class="cls-7" y="19.04" width="1649.95" height="1.3"></rect><rect class="cls-7" y="19.9" width="1649.95" height="1.3"></rect><rect class="cls-7" y="20.77" width="1649.95" height="1.3"></rect><rect class="cls-7" y="21.63" width="1649.95" height="1.3"></rect><rect class="cls-8" y="22.5" width="1649.95" height="1.3"></rect><rect class="cls-9" y="23.36" width="1649.95" height="1.3"></rect><rect class="cls-9" y="24.23" width="1649.95" height="1.3"></rect><rect class="cls-9" y="25.09" width="1649.95" height="1.3"></rect><rect class="cls-9" y="25.96" width="1649.95" height="1.3"></rect><rect class="cls-10" y="26.83" width="1649.95" height="1.3"></rect><rect class="cls-10" y="27.69" width="1649.95" height="1.3"></rect><rect class="cls-10" y="28.56" width="1649.95" height="1.3"></rect><rect class="cls-11" y="29.42" width="1649.95" height="1.3"></rect><rect class="cls-12" y="30.29" width="1649.95" height="1.3"></rect><rect class="cls-12" y="31.15" width="1649.95" height="1.3"></rect><rect class="cls-12" y="32.02" width="1649.95" height="1.3"></rect><rect class="cls-12" y="32.88" width="1649.95" height="1.3"></rect><rect class="cls-13" y="33.75" width="1649.95" height="1.3"></rect><rect class="cls-14" y="34.61" width="1649.95" height="1.3"></rect><rect class="cls-15" y="35.48" width="1649.95" height="1.3"></rect><rect class="cls-16" y="36.34" width="1649.95" height="1.3"></rect><rect class="cls-16" y="37.21" width="1649.95" height="1.3"></rect><rect class="cls-16" y="38.07" width="1649.95" height="1.3"></rect><rect class="cls-17" y="38.94" width="1649.95" height="1.3"></rect><rect class="cls-17" y="39.81" width="1649.95" height="1.3"></rect><rect class="cls-18" y="40.67" width="1649.95" height="1.3"></rect><rect class="cls-19" y="41.54" width="1649.95" height="1.3"></rect><rect class="cls-19" y="42.4" width="1649.95" height="1.3"></rect><rect class="cls-20" y="43.27" width="1649.95" height="1.3"></rect><rect class="cls-21" y="44.13" width="1649.95" height="1.3"></rect><rect class="cls-22" y="45" width="1649.95" height="1.3"></rect><rect class="cls-22" y="45.86" width="1649.95" height="1.3"></rect><rect class="cls-23" y="46.73" width="1649.95" height="1.3"></rect><rect class="cls-24" y="47.59" width="1649.95" height="1.3"></rect><rect class="cls-25" y="48.46" width="1649.95" height="1.3"></rect><rect class="cls-26" y="49.32" width="1649.95" height="1.3"></rect><rect class="cls-26" y="50.19" width="1649.95" height="1.3"></rect><rect class="cls-27" y="51.05" width="1649.95" height="1.3"></rect><rect class="cls-27" y="51.92" width="1649.95" height="1.3"></rect><rect class="cls-28" y="52.79" width="1649.95" height="1.3"></rect><rect class="cls-28" y="53.65" width="1649.95" height="1.3"></rect><rect class="cls-29" y="54.52" width="1649.95" height="1.3"></rect><rect class="cls-30" y="55.38" width="1649.95" height="1.3"></rect><rect class="cls-31" y="56.25" width="1649.95" height="1.3"></rect><rect class="cls-32" y="57.11" width="1649.95" height="1.3"></rect><rect class="cls-33" y="57.98" width="1649.95" height="1.3"></rect><rect class="cls-34" y="58.84" width="1649.95" height="1.3"></rect><rect class="cls-35" y="59.71" width="1649.95" height="1.3"></rect><rect class="cls-36" y="60.57" width="1649.95" height="1.3"></rect><rect class="cls-36" y="61.44" width="1649.95" height="1.3"></rect><rect class="cls-37" y="62.3" width="1649.95" height="1.3"></rect><rect class="cls-38" y="63.17" width="1649.95" height="1.3"></rect><rect class="cls-39" y="64.03" width="1649.95" height="1.3"></rect><rect class="cls-39" y="64.9" width="1649.95" height="1.3"></rect><rect class="cls-40" y="65.77" width="1649.95" height="1.3"></rect><rect class="cls-41" y="66.63" width="1649.95" height="1.3"></rect><rect class="cls-42" y="67.5" width="1649.95" height="1.3"></rect><rect class="cls-42" y="68.36" width="1649.95" height="1.3"></rect><rect class="cls-43" y="69.23" width="1649.95" height="1.3"></rect><rect class="cls-43" y="70.09" width="1649.95" height="1.3"></rect><rect class="cls-44" y="70.96" width="1649.95" height="1.3"></rect><rect class="cls-45" y="71.82" width="1649.95" height="1.3"></rect><rect class="cls-46" y="72.69" width="1649.95" height="1.3"></rect><rect class="cls-46" y="73.55" width="1649.95" height="1.3"></rect><rect class="cls-47" y="74.42" width="1649.95" height="1.3"></rect><rect class="cls-48" y="75.28" width="1649.95" height="1.3"></rect><rect class="cls-49" y="76.15" width="1649.95" height="1.3"></rect><rect class="cls-50" y="77.01" width="1649.95" height="1.3"></rect><rect class="cls-51" y="77.88" width="1649.95" height="1.3"></rect><rect class="cls-52" y="78.75" width="1649.95" height="1.3"></rect><rect class="cls-53" y="79.61" width="1649.95" height="1.3"></rect><rect class="cls-54" y="80.48" width="1649.95" height="1.3"></rect><rect class="cls-54" y="81.34" width="1649.95" height="1.3"></rect><rect class="cls-55" y="82.21" width="1649.95" height="1.3"></rect><rect class="cls-56" y="83.07" width="1649.95" height="1.3"></rect><rect class="cls-56" y="83.94" width="1649.95" height="1.3"></rect><rect class="cls-57" y="84.8" width="1649.95" height="1.3"></rect><rect class="cls-58" y="85.67" width="1649.95" height="1.3"></rect><rect class="cls-59" y="86.53" width="1649.95" height="1.3"></rect><rect class="cls-60" y="87.4" width="1649.95" height="1.3"></rect><rect class="cls-61" y="88.26" width="1649.95" height="1.3"></rect><rect class="cls-62" y="89.13" width="1649.95" height="1.3"></rect><rect class="cls-62" y="89.99" width="1649.95" height="1.3"></rect><rect class="cls-63" y="90.86" width="1649.95" height="1.3"></rect><rect class="cls-64" y="91.73" width="1649.95" height="1.3"></rect><rect class="cls-64" y="92.59" width="1649.95" height="1.3"></rect><rect class="cls-65" y="93.46" width="1649.95" height="1.3"></rect><rect class="cls-66" y="94.32" width="1649.95" height="1.3"></rect><rect class="cls-67" y="95.19" width="1649.95" height="1.3"></rect><rect class="cls-68" y="96.05" width="1649.95" height="1.3"></rect><rect class="cls-69" y="96.92" width="1649.95" height="1.3"></rect><rect class="cls-70" y="97.78" width="1649.95" height="1.3"></rect><rect class="cls-71" y="98.65" width="1649.95" height="1.3"></rect><rect class="cls-72" y="99.51" width="1649.95" height="1.3"></rect><rect class="cls-73" y="100.38" width="1649.95" height="1.3"></rect><rect class="cls-74" y="101.24" width="1649.95" height="1.3"></rect><rect class="cls-75" y="102.11" width="1649.95" height="1.3"></rect><rect class="cls-76" y="102.97" width="1649.95" height="1.3"></rect><rect class="cls-77" y="103.84" width="1649.95" height="1.3"></rect><rect class="cls-78" y="104.71" width="1649.95" height="1.3"></rect><rect class="cls-78" y="105.57" width="1649.95" height="1.3"></rect><rect class="cls-79" y="106.44" width="1649.95" height="1.3"></rect><rect class="cls-80" y="107.3" width="1649.95" height="1.3"></rect><rect class="cls-80" y="108.17" width="1649.95" height="1.3"></rect><rect class="cls-81" y="109.03" width="1649.95" height="1.3"></rect><rect class="cls-82" y="109.9" width="1649.95" height="1.3"></rect><rect class="cls-82" y="110.76" width="1649.95" height="1.3"></rect><rect class="cls-83" y="111.63" width="1649.95" height="1.3"></rect><rect class="cls-84" y="112.49" width="1649.95" height="1.3"></rect><rect class="cls-85" y="113.36" width="1649.95" height="1.3"></rect><rect class="cls-86" y="114.22" width="1649.95" height="1.3"></rect><rect class="cls-87" y="115.09" width="1649.95" height="1.3"></rect><rect class="cls-88" y="115.95" width="1649.95" height="1.3"></rect><rect class="cls-89" y="116.82" width="1649.95" height="1.3"></rect><rect class="cls-90" y="117.69" width="1649.95" height="1.3"></rect><rect class="cls-91" y="118.55" width="1649.95" height="1.3"></rect><rect class="cls-92" y="119.42" width="1649.95" height="1.3"></rect><rect class="cls-93" y="120.28" width="1649.95" height="1.3"></rect><rect class="cls-94" y="121.15" width="1649.95" height="1.3"></rect><rect class="cls-95" y="122.01" width="1649.95" height="1.3"></rect><rect class="cls-96" y="122.88" width="1649.95" height="1.3"></rect><rect class="cls-97" y="123.74" width="1649.95" height="1.3"></rect><rect class="cls-97" y="124.61" width="1649.95" height="1.3"></rect><rect class="cls-98" y="125.47" width="1649.95" height="1.3"></rect><rect class="cls-99" y="126.34" width="1649.95" height="1.3"></rect><rect class="cls-100" y="127.2" width="1649.95" height="1.3"></rect><rect class="cls-101" y="128.07" width="1649.95" height="1.3"></rect><rect class="cls-102" y="128.94" width="1649.95" height="1.3"></rect><rect class="cls-103" y="129.8" width="1649.95" height="1.3"></rect><rect class="cls-103" y="130.67" width="1649.95" height="1.3"></rect><rect class="cls-104" y="131.53" width="1649.95" height="1.3"></rect><rect class="cls-105" y="132.4" width="1649.95" height="1.3"></rect><rect class="cls-105" y="133.26" width="1649.95" height="1.3"></rect><rect class="cls-106" y="134.13" width="1649.95" height="1.3"></rect><rect class="cls-107" y="134.99" width="1649.95" height="1.3"></rect><rect class="cls-108" y="135.86" width="1649.95" height="1.3"></rect><rect class="cls-108" y="136.72" width="1649.95" height="1.3"></rect><rect class="cls-109" y="137.59" width="1649.95" height="1.3"></rect><rect class="cls-110" y="138.45" width="1649.95" height="1.3"></rect><rect class="cls-110" y="139.32" width="1649.95" height="1.3"></rect><rect class="cls-111" y="140.18" width="1649.95" height="1.3"></rect><rect class="cls-112" y="141.05" width="1649.95" height="1.3"></rect><rect class="cls-113" y="141.91" width="1649.95" height="1.3"></rect><rect class="cls-114" y="142.78" width="1649.95" height="1.3"></rect><rect class="cls-115" y="143.65" width="1649.95" height="1.3"></rect><rect class="cls-116" y="144.51" width="1649.95" height="1.3"></rect><rect class="cls-117" y="145.38" width="1649.95" height="1.3"></rect><rect class="cls-118" y="146.24" width="1649.95" height="1.3"></rect><rect class="cls-119" y="147.11" width="1649.95" height="1.3"></rect><rect class="cls-119" y="147.97" width="1649.95" height="1.3"></rect><rect class="cls-120" y="148.84" width="1649.95" height="1.3"></rect><rect class="cls-121" y="149.7" width="1649.95" height="1.3"></rect><rect class="cls-122" y="150.57" width="1649.95" height="1.3"></rect><rect class="cls-123" y="151.43" width="1649.95" height="1.3"></rect><rect class="cls-124" y="152.3" width="1649.95" height="1.3"></rect><rect class="cls-125" y="153.16" width="1649.95" height="1.3"></rect><rect class="cls-126" y="154.03" width="1649.95" height="1.3"></rect><rect class="cls-127" y="154.9" width="1649.95" height="1.3"></rect><rect class="cls-127" y="155.76" width="1649.95" height="1.3"></rect><rect class="cls-128" y="156.63" width="1649.95" height="1.3"></rect><rect class="cls-129" y="157.49" width="1649.95" height="1.3"></rect><rect class="cls-130" y="158.36" width="1649.95" height="1.3"></rect><rect class="cls-131" y="159.22" width="1649.95" height="1.3"></rect><rect class="cls-131" y="160.09" width="1649.95" height="1.3"></rect><rect class="cls-132" y="160.95" width="1649.95" height="1.3"></rect><rect class="cls-133" y="161.82" width="1649.95" height="1.3"></rect><rect class="cls-133" y="162.68" width="1649.95" height="1.3"></rect><rect class="cls-134" y="163.55" width="1649.95" height="1.3"></rect><rect class="cls-135" y="164.41" width="1649.95" height="1.3"></rect><rect class="cls-136" y="165.28" width="1649.95" height="1.3"></rect><rect class="cls-137" y="166.14" width="1649.95" height="1.3"></rect><rect class="cls-137" y="167.01" width="1649.95" height="1.3"></rect><rect class="cls-138" y="167.88" width="1649.95" height="1.3"></rect><rect class="cls-139" y="168.74" width="1649.95" height="1.3"></rect><rect class="cls-140" y="169.61" width="1649.95" height="1.3"></rect><rect class="cls-141" y="170.47" width="1649.95" height="1.3"></rect><rect class="cls-142" y="171.34" width="1649.95" height="1.3"></rect><rect class="cls-143" y="172.2" width="1649.95" height="1.3"></rect><rect class="cls-143" y="173.07" width="1649.95" height="1.3"></rect><rect class="cls-144" y="173.93" width="1649.95" height="1.3"></rect><rect class="cls-145" y="174.8" width="1649.95" height="1.3"></rect><rect class="cls-146" y="175.66" width="1649.95" height="1.3"></rect><rect class="cls-147" y="176.53" width="1649.95" height="1.3"></rect><rect class="cls-148" y="177.39" width="1649.95" height="1.3"></rect><rect class="cls-149" y="178.26" width="1649.95" height="1.3"></rect><rect class="cls-150" y="179.12" width="1649.95" height="1.3"></rect><rect class="cls-151" y="179.99" width="1649.95" height="1.3"></rect><rect class="cls-151" y="180.86" width="1649.95" height="1.3"></rect><rect class="cls-152" y="181.72" width="1649.95" height="1.3"></rect><rect class="cls-152" y="182.59" width="1649.95" height="1.3"></rect><rect class="cls-153" y="183.45" width="1649.95" height="1.3"></rect><rect class="cls-153" y="184.32" width="1649.95" height="1.3"></rect><rect class="cls-154" y="185.18" width="1649.95" height="1.3"></rect><rect class="cls-154" y="186.05" width="1649.95" height="1.3"></rect><rect class="cls-155" y="186.91" width="1649.95" height="1.3"></rect><rect class="cls-156" y="187.78" width="1649.95" height="1.3"></rect><rect class="cls-156" y="188.64" width="1649.95" height="1.3"></rect><rect class="cls-157" y="189.51" width="1649.95" height="1.3"></rect><rect class="cls-158" y="190.37" width="1649.95" height="1.3"></rect><rect class="cls-159" y="191.24" width="1649.95" height="1.3"></rect><rect class="cls-159" y="192.1" width="1649.95" height="1.3"></rect><rect class="cls-159" y="192.97" width="1649.95" height="1.3"></rect><rect class="cls-160" y="193.84" width="1649.95" height="1.3"></rect><rect class="cls-161" y="194.7" width="1649.95" height="1.3"></rect><rect class="cls-162" y="195.57" width="1649.95" height="1.3"></rect><rect class="cls-163" y="196.43" width="1649.95" height="1.3"></rect><rect class="cls-163" y="197.3" width="1649.95" height="1.3"></rect><rect class="cls-163" y="198.16" width="1649.95" height="1.3"></rect><rect class="cls-164" y="199.03" width="1649.95" height="1.3"></rect><rect class="cls-165" y="199.89" width="1649.95" height="1.3"></rect><rect class="cls-165" y="200.76" width="1649.95" height="1.3"></rect><rect class="cls-166" y="201.62" width="1649.95" height="1.3"></rect><rect class="cls-166" y="202.49" width="1649.95" height="1.3"></rect><rect class="cls-166" y="203.35" width="1649.95" height="1.3"></rect><rect class="cls-167" y="204.22" width="1649.95" height="1.3"></rect><rect class="cls-167" y="205.08" width="1649.95" height="1.3"></rect><rect class="cls-167" y="205.95" width="1649.95" height="1.3"></rect><rect class="cls-167" y="206.82" width="1649.95" height="1.3"></rect><rect class="cls-167" y="207.68" width="1649.95" height="1.3"></rect><rect class="cls-168" y="208.55" width="1649.95" height="1.3"></rect><rect class="cls-168" y="209.41" width="1649.95" height="1.3"></rect><rect class="cls-168" y="210.28" width="1649.95" height="1.3"></rect><rect class="cls-169" y="211.14" width="1649.95" height="1.3"></rect><rect class="cls-170" y="212.01" width="1649.95" height="1.3"></rect><rect class="cls-170" y="212.87" width="1649.95" height="1.3"></rect><rect class="cls-171" y="213.74" width="1649.95" height="1.3"></rect><rect class="cls-171" y="214.6" width="1649.95" height="1.3"></rect><rect class="cls-171" y="215.47" width="1649.95" height="1.3"></rect><rect class="cls-171" y="216.33" width="1649.95" height="1.3"></rect><rect class="cls-171" y="217.2" width="1649.95" height="1.3"></rect><rect class="cls-171" y="218.06" width="1649.95" height="1.3"></rect><rect class="cls-171" y="218.93" width="1649.95" height="1.3"></rect><rect class="cls-171" y="219.8" width="1649.95" height="1.3"></rect><rect class="cls-171" y="220.66" width="1649.95" height="0.87"></rect></g></g></g></svg> 