<svg xmlns="http://www.w3.org/2000/svg" viewBox="0 0 286.64 68.54"><defs><style>.cls-1{fill:#231f20;}.cls-2{fill:#058c91;}</style></defs><g id="Layer_2" data-name="Layer 2"><g id="Layer_1-2" data-name="Layer 1"><path class="cls-1" d="M62.46,43.55V40.24a8.84,8.84,0,0,1-3.71,2.84,12.93,12.93,0,0,1-5.45,1.15q-11.1,0-11.09-12V16.12H39.09V14.88H51.56v18.7c0,3,.43,5,1.3,6.29a4.49,4.49,0,0,0,3.93,1.87q3.49,0,5.67-3.74V16.12H59.35V14.88H71.81V42.3h3.12v1.25Z"></path><path class="cls-1" d="M107.46,31.08H88.64q.61,11,8.54,11a14.12,14.12,0,0,0,4.83-1,8,8,0,0,0,4-2.8l.87.62a9.94,9.94,0,0,1-4.68,3.8,15.77,15.77,0,0,1-6.57,1.5,24.64,24.64,0,0,1-5.89-.65,17.75,17.75,0,0,1-5.11-2.22,10.28,10.28,0,0,1-3.9-4.67,18.39,18.39,0,0,1-1.4-7.54q0-7.55,4.18-11.19a14.86,14.86,0,0,1,10.12-3.65,13.39,13.39,0,0,1,9.91,4q4,4,4,12.84M88.58,29.84H98.74a37.09,37.09,0,0,0-1.22-10q-1.22-4.31-3.9-4.3t-3.86,4.15a34.62,34.62,0,0,0-1.18,9.5Z"></path><path class="cls-1" d="M126.66,43.05c4.32,0,6.48-1.19,6.48-3.55a3.77,3.77,0,0,0-2.25-3.28,21.82,21.82,0,0,0-5.42-2.08c-2.12-.54-4.2-1.17-6.26-1.87a11.72,11.72,0,0,1-5.11-3.37,7.6,7.6,0,0,1-1.65-6,8.38,8.38,0,0,1,3.83-6.18,14.49,14.49,0,0,1,8.54-2.43A17.77,17.77,0,0,1,133,15.87c2.08,1.09,3.24,2.54,3.49,4.37a4.81,4.81,0,0,1-.53,3.11,2.8,2.8,0,0,1-2.55,1.5,4.07,4.07,0,0,1-2.93-.94,2.78,2.78,0,0,1-1.09-2.3,3.63,3.63,0,0,1,1-2.34,2.86,2.86,0,0,0,.93-1.65c0-.71-.67-1.24-2-1.59a18.78,18.78,0,0,0-4.68-.53,7.41,7.41,0,0,0-4.33,1.18,3.5,3.5,0,0,0-1.68,2.93,3.54,3.54,0,0,0,2.08,3,19.71,19.71,0,0,0,5.08,2c2,.52,4,1.1,6,1.75a12.3,12.3,0,0,1,5,3.08,7.29,7.29,0,0,1,2.09,5.36,8.6,8.6,0,0,1-3.05,6.89c-2,1.72-5.11,2.59-9.23,2.59a22.86,22.86,0,0,1-10-1.88c-2.55-1.24-4-2.84-4.21-4.79a4.74,4.74,0,0,1,.57-3.12A2.85,2.85,0,0,1,115.5,33a4,4,0,0,1,2.9.94,2.78,2.78,0,0,1,1.09,2.31,3.64,3.64,0,0,1-1,2.33,2.91,2.91,0,0,0-.93,1.65c0,.84,1,1.51,2.9,2a23.72,23.72,0,0,0,6.2.78"></path><path class="cls-1" d="M154.33,16.12V31.33c0,3.58.14,5.75.44,6.51a11.75,11.75,0,0,0,.93,2A3.45,3.45,0,0,0,159,41.43a6.27,6.27,0,0,0,3.27-.62v1.24a11.08,11.08,0,0,1-6.54,2.12q-5.23,0-8-2.49C145.89,40,145,37,145,32.77V16.12h-4.61V14.88H145a9.39,9.39,0,0,0,5.3-2.9,13.3,13.3,0,0,0,3.18-6.64h.87v9.54h7.23v1.24Z"></path><path class="cls-1" d="M198.2,42.3h3.12v1.25H185.74V42.3h3.12V16.12H178.45V42.3h3.11v1.25H166V42.3h3.12V16.12h-3.74V14.88h3.74a14.65,14.65,0,0,1,2-7.89,14.68,14.68,0,0,1,6.08-5.2A18,18,0,0,1,182.78.2a22.9,22.9,0,0,1,7,.16A11.6,11.6,0,0,1,195.4,2.6a6,6,0,0,1,2.24,3.71,4.33,4.33,0,0,1-.93,3.58,4.6,4.6,0,0,1-3.06,1.72,4.15,4.15,0,0,1-3.24-1,4.34,4.34,0,0,1-1.55-4.3,3.82,3.82,0,0,1,.49-1.25,2.35,2.35,0,0,0,.5-1.9c-.16-.43-.82-.86-2-1.28a9.11,9.11,0,0,0-4.55-.12,4.78,4.78,0,0,0-3.86,3.49q-1,3-1,9.6H198.2Z"></path><path class="cls-1" d="M221.89,43.55H206.31V42.3h3.11V16.12h-3.11V14.88h12.46v7.41a11.66,11.66,0,0,1,2-5A7.06,7.06,0,0,1,224,14.75a10.47,10.47,0,0,1,3.43-.62,8.83,8.83,0,0,1,3.18.59,4.12,4.12,0,0,1,2.27,2.37,4.56,4.56,0,0,1,.06,3.55,4.31,4.31,0,0,1-2.4,2.53,4,4,0,0,1-3.14.18,4.09,4.09,0,0,1-2.06-1.52,6.74,6.74,0,0,1-.87-1.84c-.42-1.54-1-2.31-1.69-2.31s-1.66,1.36-2.61,4.08a25.81,25.81,0,0,0-1.44,8.64V42.3h3.12Z"></path><path class="cls-1" d="M251.06,43.05c4.32,0,6.48-1.19,6.48-3.55a3.77,3.77,0,0,0-2.25-3.28,21.82,21.82,0,0,0-5.42-2.08c-2.12-.54-4.21-1.17-6.26-1.87a11.72,11.72,0,0,1-5.11-3.37,7.6,7.6,0,0,1-1.65-6,8.38,8.38,0,0,1,3.83-6.18,14.49,14.49,0,0,1,8.54-2.43,17.8,17.8,0,0,1,8.19,1.62c2.08,1.09,3.24,2.54,3.49,4.37a4.81,4.81,0,0,1-.53,3.11,2.8,2.8,0,0,1-2.55,1.5,4.07,4.07,0,0,1-2.93-.94,2.78,2.78,0,0,1-1.09-2.3,3.63,3.63,0,0,1,1-2.34,2.86,2.86,0,0,0,.93-1.65c0-.71-.68-1.24-2-1.59A18.64,18.64,0,0,0,249,15.5a7.41,7.41,0,0,0-4.33,1.18A3.5,3.5,0,0,0,243,19.61a3.54,3.54,0,0,0,2.08,3,19.71,19.71,0,0,0,5.08,2c2,.52,4,1.1,6,1.75a12.3,12.3,0,0,1,5,3.08,7.29,7.29,0,0,1,2.09,5.36,8.6,8.6,0,0,1-3,6.89c-2,1.72-5.11,2.59-9.23,2.59a22.86,22.86,0,0,1-10-1.88c-2.55-1.24-4-2.84-4.21-4.79a4.79,4.79,0,0,1,.56-3.12A2.88,2.88,0,0,1,239.9,33a4,4,0,0,1,2.9.94,2.78,2.78,0,0,1,1.09,2.31,3.64,3.64,0,0,1-1,2.33,2.91,2.91,0,0,0-.93,1.65c0,.84,1,1.51,2.89,2a23.85,23.85,0,0,0,6.21.78"></path><path class="cls-1" d="M278.73,16.12V31.33q0,5.37.43,6.51a11,11,0,0,0,.94,2,3.45,3.45,0,0,0,3.27,1.62,6.27,6.27,0,0,0,3.27-.62v1.24a11.08,11.08,0,0,1-6.54,2.12q-5.24,0-8-2.49c-1.83-1.66-2.74-4.64-2.74-8.91V16.12h-4.61V14.88h4.61a9.39,9.39,0,0,0,5.3-2.9,13.21,13.21,0,0,0,3.17-6.64h.88v9.54H286v1.24Z"></path><path class="cls-2" d="M0,50.41H6.82S7.48,62.22,18.3,62.22s11.48-12,11.48-12h6.65s-1.33,18.3-18.3,18.3S0,50.41,0,50.41"></path><path class="cls-2" d="M31.46,21h3.46V14.57H18A16.58,16.58,0,1,0,31.46,21M18.33,41.22A10.06,10.06,0,1,1,28.39,31.16,10.08,10.08,0,0,1,18.33,41.22"></path><polygon class="cls-2" points="89.46 54.97 90.74 54.97 93.34 61.59 95.95 54.97 97.22 54.97 93.92 63.24 92.76 63.24 89.46 54.97"></polygon><path class="cls-2" d="M100.47,55h1.16l3.3,8.27H103.7l-.83-2.06H99.21l-.8,2.06H97.17Zm2.07,5.2-1.49-3.86-1.49,3.86Z"></path><path class="cls-2" d="M107.92,62.88a3.8,3.8,0,0,1-1.55-1.5,4.88,4.88,0,0,1,0-4.54,3.84,3.84,0,0,1,1.55-1.52,4.78,4.78,0,0,1,2.27-.53,4.56,4.56,0,0,1,2.85.87v1.15a4,4,0,0,0-2.74-.91,3.58,3.58,0,0,0-1.7.39,2.82,2.82,0,0,0-1.15,1.12,3.65,3.65,0,0,0,0,3.4,2.87,2.87,0,0,0,1.16,1.13,3.6,3.6,0,0,0,1.69.39,5.13,5.13,0,0,0,1.57-.23,3.85,3.85,0,0,0,1.28-.74v1.17a4.51,4.51,0,0,1-3,.89,4.67,4.67,0,0,1-2.27-.54"></path><path class="cls-2" d="M117.69,55h1.16l3.3,8.27h-1.23l-.82-2.06h-3.66l-.8,2.06h-1.25Zm2.07,5.2-1.49-3.86-1.49,3.86Z"></path><polygon class="cls-2" points="124.54 55.99 121.98 55.99 121.98 54.97 128.33 54.97 128.33 55.99 125.76 55.99 125.76 63.24 124.54 63.24 124.54 55.99"></polygon><rect class="cls-2" x="129.87" y="54.97" width="1.22" height="8.27"></rect><path class="cls-2" d="M135,62.88a4,4,0,0,1-1.56-1.52,4.73,4.73,0,0,1,0-4.5A4,4,0,0,1,135,55.34a4.78,4.78,0,0,1,4.45,0A4,4,0,0,1,141,56.86a4.73,4.73,0,0,1,0,4.5,4,4,0,0,1-1.56,1.52,4.85,4.85,0,0,1-4.45,0m3.82-1a2.9,2.9,0,0,0,1.13-1.12,3.71,3.71,0,0,0,0-3.39,2.85,2.85,0,0,0-1.11-1.12,3.42,3.42,0,0,0-3.19,0,2.88,2.88,0,0,0-1.14,1.13,3.34,3.34,0,0,0-.42,1.69,3.45,3.45,0,0,0,.41,1.7,3,3,0,0,0,1.13,1.12,3.38,3.38,0,0,0,3.19,0"></path><polygon class="cls-2" points="143.34 54.97 144.49 54.97 148.7 61.2 148.7 54.97 149.92 54.97 149.92 63.24 148.76 63.24 144.55 57 144.55 63.24 143.34 63.24 143.34 54.97"></polygon><path class="cls-2" d="M156.79,55h3.32a3,3,0,0,1,2,.64,2.39,2.39,0,0,1,.71,1.87,2.49,2.49,0,0,1-.49,1.54,2.41,2.41,0,0,1-1.37.86l1.82,3.36h-1.25L159.8,60H158v3.27h-1.2Zm3.12,4a2,2,0,0,0,1.26-.38,1.32,1.32,0,0,0,.47-1.1,1.36,1.36,0,0,0-.46-1.15,2.06,2.06,0,0,0-1.27-.34H158v3Z"></path><polygon class="cls-2" points="164.63 54.97 170.08 54.97 170.08 55.99 165.84 55.99 165.84 58.6 169.01 58.6 169.01 59.61 165.84 59.61 165.84 62.23 170.08 62.23 170.08 63.24 164.63 63.24 164.63 54.97"></polygon><polygon class="cls-2" points="171.8 54.97 172.95 54.97 177.16 61.2 177.16 54.97 178.38 54.97 178.38 63.24 177.22 63.24 173.01 57 173.01 63.24 171.8 63.24 171.8 54.97"></polygon><polygon class="cls-2" points="182.49 55.99 179.92 55.99 179.92 54.97 186.27 54.97 186.27 55.99 183.7 55.99 183.7 63.24 182.49 63.24 182.49 55.99"></polygon><path class="cls-2" d="M189.4,55h1.15l3.31,8.27h-1.24l-.82-2.06h-3.66l-.8,2.06h-1.25Zm2.07,5.2L190,56.31l-1.49,3.86Z"></path><polygon class="cls-2" points="195.63 54.97 196.84 54.97 196.84 62.23 201.03 62.23 201.03 63.24 195.63 63.24 195.63 54.97"></polygon><path class="cls-2" d="M203.46,63.29a4.25,4.25,0,0,1-1.13-.33V61.87a5.72,5.72,0,0,0,2.44.53c1.24,0,1.85-.42,1.85-1.24a1.11,1.11,0,0,0-.2-.69,1.72,1.72,0,0,0-.58-.45,12.58,12.58,0,0,0-1.23-.54,4.77,4.77,0,0,1-1.69-1A2,2,0,0,1,202.4,57a2,2,0,0,1,.35-1.15,2.32,2.32,0,0,1,1-.78,3.52,3.52,0,0,1,1.46-.28,6.43,6.43,0,0,1,1.22.11,4.75,4.75,0,0,1,1.07.34v1a5,5,0,0,0-2.09-.46,2.27,2.27,0,0,0-1.3.31,1,1,0,0,0-.45.87,1.1,1.1,0,0,0,.2.66,1.55,1.55,0,0,0,.58.47,11.55,11.55,0,0,0,1.14.52,8.1,8.1,0,0,1,1.32.65,2,2,0,0,1,.74.75,2.22,2.22,0,0,1,.26,1.11,2,2,0,0,1-.77,1.67,3.71,3.71,0,0,1-2.27.59,7.22,7.22,0,0,1-1.4-.13"></path></g></g></svg>